# xmcd
#
# Track frame offsets:
#	150
#	5518
#	23919
#	41743
#	60164
#	80455
#	100842
#	125144
#	140921
#	163121
#	175956
#	193841
#	214363
#	237474
#
# Disc length: 3299 seconds
#
# Revision: 0
# Processed by: cddbd v1.5.2PL0 Copyright (c) Steve Scherf et al.
# Submitted via: EasyCDDAExtractor 16.0.6.1
#
DISCID=cc0ce10e
DTITLE=Χορωδία υπό Διον. Αποστολάτου - Μαρμαρωμένος βασιλιάς-Σταμ. Σπανουδάκης
DYEAR=1998
DGENRE=Έντεχνη
TTITLE0=Άνευ ερμηνευτού - Πύλη του παραμυθιού
TTITLE1=Άνευ ερμηνευτού - Κωνσταντίνος Παλαιολόγος
TTITLE2=Χορωδία υπό Διον. Αποστολάτου - Πόλη γλυκειά
TTITLE3=Άνευ ερμηνευτού - Τα μάτια της δάκρυσαν
TTITLE4=Άνευ ερμηνευτού - Ξημέρωμα στα τείχη
TTITLE5=Άνευ ερμηνευτού - Μαύρη Τρίτη
TTITLE6=Χορωδία υπό Διον. Αποστολάτου - Εάλω η Πόλη
TTITLE7=Άνευ ερμηνευτού - Τέσσερα βήτα
TTITLE8=Άνευ ερμηνευτού - Βροχερό δειλινό στο Βόσπορο
TTITLE9=Άνευ ερμηνευτού - Η αγάπη που δεν γνώρισες...
TTITLE10=Χορωδία υπό Διον. Αποστολάτου - Θρήνος
TTITLE11=Χορωδία υπό Διον. Αποστολάτου - Θά 'ρθεις σαν αστραπή
TTITLE12=Χορωδία υπό Διον. Αποστολάτου - Μαρμαρωμένος βασιλιάς
TTITLE13=Άνευ ερμηνευτού - Πύλη του ονείρου
EXTD=
EXTT0=
EXTT1=
EXTT2=
EXTT3=
EXTT4=
EXTT5=
EXTT6=
EXTT7=
EXTT8=
EXTT9=
EXTT10=
EXTT11=
EXTT12=
EXTT13=
PLAYORDER=
